<?xml version="1.0" encoding="utf-8"?>
<!-- Generator: Adobe Illustrator 21.0.0, SVG Export Plug-In . SVG Version: 6.00 Build 0)  -->
<svg version="1.1" id="Layer_1" xmlns="http://www.w3.org/2000/svg" xmlns:xlink="http://www.w3.org/1999/xlink" x="0px" y="0px"
	 viewBox="0 0 841.9 595.3" style="enable-background:new 0 0 841.9 595.3;" xml:space="preserve">
<style type="text/css">
	.st0{fill:#27245F;}
	.st1{fill:url(#SVGID_1_);}
	.st2{fill:url(#SVGID_2_);}
	.st3{fill:#EC1E79;}
</style>
<g>
	<path class="st0" d="M179.5,297.7v-90.3h21.3c7.4,0,13.1,2,17.2,6.1c4.1,4.1,6.2,10.1,6.2,18.2c0,4.2-0.9,8-2.7,11.2
		c-1.8,3.3-4.3,5.7-7.5,7.2c4.5,0.9,7.9,3.4,10.3,7.5c2.4,4.1,3.6,9,3.6,14.5c0,8.3-2,14.6-6.1,19c-4.1,4.4-9.7,6.5-16.8,6.5H179.5z
		 M190.2,246.6h12.2c3.4-0.1,6.1-1.4,8.1-3.9c2-2.5,2.9-6,2.9-10.6c0-5-1.1-8.7-3.2-11.2c-2.1-2.5-5.3-3.7-9.4-3.7h-10.6V246.6z
		 M190.2,255.6v32.6H205c3.9,0,6.9-1.4,9-4.1c2.1-2.7,3.2-6.7,3.2-11.8c0-5-1-8.9-3.1-11.9s-5-4.5-8.7-4.7h-0.6H190.2z"/>
</g>
<g>
	<path class="st0" d="M268.7,287.9c-1.5,3.6-3.5,6.3-5.9,8.2c-2.4,1.9-5.2,2.9-8.3,2.9c-5.2,0-9.3-2.4-12.3-7.1
		c-3-4.8-4.4-12.1-4.4-22.1v-39.1h10.8v39.3c0,7.2,0.7,12.2,2.1,15.1c1.4,2.9,3.6,4.3,6.4,4.3c2.6,0,4.9-0.7,6.7-2.2
		c1.8-1.4,3.3-3.5,4.4-6.2v-50.3h10.8v67.1h-9.1L268.7,287.9z"/>
</g>
<g>
	<path class="st0" d="M371.4,280.8c0-2.6-0.7-4.8-2.2-6.5c-1.5-1.8-4.3-3.7-8.5-5.9c-5.9-2.6-10.3-5.4-13.2-8.5
		c-2.9-3.1-4.4-7-4.4-11.8c0-5.2,1.8-9.6,5.3-13.2c3.5-3.6,8.1-5.5,13.8-5.5c5.9,0,10.6,2,14.2,6c3.6,4,5.3,8.8,5.2,14.5l-0.1,0.4
		h-10.3c0-3.2-0.8-5.9-2.4-8.2c-1.6-2.3-3.8-3.4-6.5-3.4s-4.9,0.9-6.4,2.7c-1.5,1.8-2.3,3.9-2.3,6.3c0,2.6,0.7,4.6,2,6
		c1.3,1.5,4.1,3.4,8.5,5.7c6,2.5,10.5,5.4,13.5,8.6c3,3.3,4.5,7.4,4.5,12.3c0,5.6-1.8,10.1-5.5,13.6c-3.6,3.5-8.4,5.2-14.3,5.2
		c-6.4,0-11.4-2.1-15.1-6.3c-3.7-4.2-5.4-9.1-5.2-14.7l0.1-0.4h10c0.1,4.3,1.2,7.5,3.1,9.4c2,1.9,4.4,2.9,7.3,2.9
		c2.8,0,5.1-0.9,6.7-2.6C370.6,285.6,371.4,283.5,371.4,280.8z"/>
</g>
<g>
	<path class="st0" d="M425.1,281.1h0.3l18.4-73.7h13.7v90.3h-10.7v-65.1l-0.3-0.1l-17.6,65.1h-7.3l-17.9-66.1l-0.3,0.1v66h-10.7
		v-90.3h14L425.1,281.1z"/>
</g>
<g>
	<path class="st0" d="M482.2,213h-10.8v-12h10.8V213z M482.2,297.7h-10.8v-67.1h10.8V297.7z"/>
</g>
<g>
	<path class="st0" d="M505,230.6l0.6,10c1.6-3.6,3.7-6.3,6.1-8.3c2.5-2,5.3-2.9,8.4-2.9c5.1,0,9,2.2,11.8,6.6
		c2.8,4.4,4.2,11.2,4.2,20.5v41.3h-10.7v-41.2c0-6.3-0.7-10.8-2.2-13.4c-1.5-2.6-3.8-3.9-6.8-3.9c-2.5,0-4.6,0.8-6.3,2.3
		c-1.8,1.5-3.2,3.6-4.2,6.2v50h-10.8v-67.1H505z"/>
</g>
<g>
	<path class="st0" d="M569.1,299c-7.1,0-12.7-3.1-16.7-9.2c-4-6.1-6-14.1-6-23.9v-2.9c0-9.8,2-17.9,6-24.2c4-6.3,9.2-9.5,15.7-9.5
		c6.5,0,11.5,2.7,14.9,8.1c3.4,5.4,5.1,12.7,5.1,21.8v7.1h-31c0,6.9,1,12.4,3.1,16.7c2.1,4.3,5.3,6.4,9.6,6.4c3,0,5.6-0.5,7.8-1.6
		c2.2-1.1,4.3-2.7,6.1-4.8l3.5,7.8c-1.9,2.3-4.4,4.3-7.5,5.8C576.6,298.3,573,299,569.1,299z M568,239.1c-3.1,0-5.6,1.7-7.4,5.1
		c-1.8,3.4-3,7.8-3.4,13.4h20.2v-1.4c0-5-0.8-9.1-2.3-12.3C573.6,240.6,571.3,239.1,568,239.1z"/>
</g>
<g>
	<path class="st0" d="M622.1,241.1l-4.6-0.3c-2.2,0-4.1,0.8-5.6,2.4c-1.5,1.6-2.6,3.8-3.5,6.7v47.8h-10.8v-67.1h9.9l0.7,9.9
		c1.3-3.5,2.9-6.3,4.9-8.2c2-2,4.2-2.9,6.8-2.9c0.7,0,1.3,0.1,1.9,0.2c0.6,0.1,1.1,0.3,1.6,0.5L622.1,241.1z"/>
</g>
<g>
	<path class="st0" d="M657.9,280.8c0-2.6-0.7-4.8-2.2-6.5c-1.5-1.8-4.3-3.7-8.5-5.9c-5.9-2.6-10.3-5.4-13.2-8.5
		c-2.9-3.1-4.4-7-4.4-11.8c0-5.2,1.8-9.6,5.3-13.2c3.5-3.6,8.1-5.5,13.8-5.5c5.9,0,10.6,2,14.2,6c3.6,4,5.3,8.8,5.2,14.5l-0.1,0.4
		h-10.3c0-3.2-0.8-5.9-2.4-8.2c-1.6-2.3-3.8-3.4-6.5-3.4c-2.7,0-4.9,0.9-6.4,2.7c-1.5,1.8-2.3,3.9-2.3,6.3c0,2.6,0.7,4.6,2,6
		c1.3,1.5,4.1,3.4,8.5,5.7c6,2.5,10.5,5.4,13.5,8.6c3,3.3,4.5,7.4,4.5,12.3c0,5.6-1.8,10.1-5.5,13.6c-3.6,3.5-8.4,5.2-14.3,5.2
		c-6.4,0-11.4-2.1-15.1-6.3c-3.7-4.2-5.4-9.1-5.2-14.7l0.1-0.4h10c0.1,4.3,1.2,7.5,3.1,9.4c1.9,1.9,4.4,2.9,7.3,2.9
		c2.8,0,5.1-0.9,6.7-2.6C657.1,285.6,657.9,283.5,657.9,280.8z"/>
</g>
<g>
	<g>
		<g>
			<linearGradient id="SVGID_1_" gradientUnits="userSpaceOnUse" x1="284.9384" y1="348.026" x2="332.9648" y2="348.026">
				<stop  offset="0.1923" style="stop-color:#302460"/>
				<stop  offset="0.3049" style="stop-color:#342461"/>
				<stop  offset="0.4229" style="stop-color:#412362"/>
				<stop  offset="0.5433" style="stop-color:#562265"/>
				<stop  offset="0.6656" style="stop-color:#732069"/>
				<stop  offset="0.7891" style="stop-color:#991D6F"/>
				<stop  offset="0.9121" style="stop-color:#C71A75"/>
				<stop  offset="1" style="stop-color:#EC187A"/>
			</linearGradient>
			<path class="st1" d="M311.5,393.5c-9.1,0-18.3-7.4-22.2-18.3c-4.1-11.2-8.7-42.7,3.8-62.9c4.2-6.8,9.7-9,13.5-9.5
				c5.7-0.9,12.1,1.1,16.9,5.3c0.9,0.7,1.6,1.1,2,1c1-0.4,2.2-3.1,2.5-5.3l4.9,0.8c-0.2,1.3-1.5,7.6-5.8,9.1c-1.5,0.5-4,0.7-7-1.9
				c-3.7-3.2-8.5-4.8-12.9-4.1c-4.1,0.6-7.4,3-10,7.2c-11,17.7-7.6,46.9-3.4,58.6c3.5,9.6,12,16.1,19.4,14.8
				c9.1-1.6,14.5-14.2,14.5-33.7h5c0,31.9-13.1,37.6-18.7,38.6C313.3,393.4,312.4,393.5,311.5,393.5z"/>
		</g>
		<g>
			<linearGradient id="SVGID_2_" gradientUnits="userSpaceOnUse" x1="284.9365" y1="267.2129" x2="333" y2="267.2129">
				<stop  offset="0.1923" style="stop-color:#302460"/>
				<stop  offset="0.3049" style="stop-color:#342461"/>
				<stop  offset="0.4229" style="stop-color:#412362"/>
				<stop  offset="0.5433" style="stop-color:#562265"/>
				<stop  offset="0.6656" style="stop-color:#732069"/>
				<stop  offset="0.7891" style="stop-color:#991D6F"/>
				<stop  offset="0.9121" style="stop-color:#C71A75"/>
				<stop  offset="1" style="stop-color:#EC187A"/>
			</linearGradient>
			<path class="st2" d="M328,305.1l-0.1-12.2c-3.8,3.8-9.5,5.9-16,5.5c-13.4-0.8-26.9-11.9-26.9-31.5c0-22.4,15.3-37.5,29.6-37.5
				c12.7,0,17.6,10.2,18.4,15.5l-4.9,0.7l2.5-0.4l-2.5,0.4c-0.1-0.5-1.9-11.3-13.5-11.3c-11.9,0-24.6,13.1-24.6,32.5
				c0,17.3,11.5,25.9,22.2,26.5c6.5,0.4,14.5-2.3,15.6-11.3l5,0.3L333,305L328,305.1z"/>
		</g>
		<g>
			<path class="st3" d="M330.4,259.2c-4.1,0-7.4-3.7-7.4-8.2c0-4.5,3.3-8.2,7.4-8.2s7.4,3.7,7.4,8.2
				C337.8,255.5,334.5,259.2,330.4,259.2z M330.4,247.8c-1.3,0-2.4,1.5-2.4,3.2s1.1,3.2,2.4,3.2s2.4-1.5,2.4-3.2
				S331.7,247.8,330.4,247.8z"/>
		</g>
		<g>
			<path class="st3" d="M330.4,285.7c-4.1,0-7.4-3.7-7.4-8.2c0-4.5,3.3-8.2,7.4-8.2s7.4,3.7,7.4,8.2
				C337.8,282,334.5,285.7,330.4,285.7z M330.4,274.2c-1.3,0-2.4,1.5-2.4,3.2s1.1,3.2,2.4,3.2s2.4-1.5,2.4-3.2
				S331.7,274.2,330.4,274.2z"/>
		</g>
		<g>
			<path class="st3" d="M330.4,357.6c-4.1,0-7.4-3.7-7.4-8.2s3.3-8.2,7.4-8.2s7.4,3.7,7.4,8.2S334.5,357.6,330.4,357.6z
				 M330.4,346.1c-1.3,0-2.4,1.5-2.4,3.2s1.1,3.2,2.4,3.2s2.4-1.5,2.4-3.2S331.7,346.1,330.4,346.1z"/>
		</g>
	</g>
</g>
</svg>
